<svg xmlns="http://www.w3.org/2000/svg" width="90" height="90" viewBox="0 0 90 90">
  <g id="Icon_ionic-logo-chrome" data-name="Icon ionic-logo-chrome" transform="translate(-2.25 -2.25)">
    <path id="Path_185" data-name="Path 185" d="M13.275,26.375a13.108,13.108,0,1,0,13.108-13.1A13.145,13.145,0,0,0,13.275,26.375Z" transform="translate(20.867 20.86)" fill="#eaeaea"/>
    <path id="Path_186" data-name="Path 186" d="M64.175,18.906s0,.007,0,.008a40.375,40.375,0,0,0-1.363-5.625h-.021a39.613,39.613,0,0,1,1.379,5.657h0a39.615,39.615,0,0,0-1.379-5.657H32.476a17.4,17.4,0,0,1,6.117,13.079,16.88,16.88,0,0,1-2.4,8.724L16.248,69.748s0,.051,0,.051l0,.055h0V69.8a43.7,43.7,0,0,0,4.871.246c1.335,0,2.654-.077,3.959-.2A43.668,43.668,0,0,0,64.808,26.346,43.975,43.975,0,0,0,64.175,18.906Z" transform="translate(27.442 22.2)" fill="#eaeaea"/>
    <path id="Path_187" data-name="Path 187" d="M45.942,52.071a17.267,17.267,0,0,1-15.075-8.736L10.834,8.681l-.027-.046A43.692,43.692,0,0,0,36.463,77.244l.006-.01L51.621,50.979A16.409,16.409,0,0,1,45.942,52.071Z" transform="translate(0 13.944)" fill="#eaeaea"/>
    <path id="Path_188" data-name="Path 188" d="M6.439,16.406,22.073,42.4A17.873,17.873,0,0,1,39.73,28.387H81.2a47.749,47.749,0,0,0-5.21-8.57l.024.014A47.527,47.527,0,0,1,81.2,28.387h.035a47.608,47.608,0,0,0-5.188-8.58.506.506,0,0,1-.069-.05A45.77,45.77,0,0,0,39.73,2.25,46.684,46.684,0,0,0,24.536,4.773,45.478,45.478,0,0,0,6.408,16.361l.029.047Z" transform="translate(7.377 0)" fill="#eaeaea"/>
  </g>
</svg>
