<svg xmlns="http://www.w3.org/2000/svg" width="31.512" height="31.505" viewBox="0 0 31.512 31.505">
  <path id="Icon_awesome-instagram" data-name="Icon awesome-instagram" d="M207.495,1016.615a8.066,8.066,0,1,0,.026,0Zm0,13.331a5.252,5.252,0,1,1,5.252-5.252h0A5.261,5.261,0,0,1,207.495,1029.946Zm10.294-13.661a1.879,1.879,0,1,1,0-.009Zm5.349,1.916a8.725,8.725,0,0,0-9.145-9.145c-2.6-.148-10.4-.148-13,0a8.715,8.715,0,0,0-9.145,9.138c-.148,2.6-.148,10.4,0,13a8.725,8.725,0,0,0,9.145,9.145c2.6.148,10.4.148,13,0a8.725,8.725,0,0,0,9.145-9.145c.148-2.6.148-10.392,0-12.994Zm-3.359,15.781a5.314,5.314,0,0,1-3,3c-2.074.823-7,.633-9.288.633s-7.221.183-9.288-.633a5.317,5.317,0,0,1-3-3c-.823-2.074-.633-7-.633-9.288s-.183-7.221.633-9.288a5.32,5.32,0,0,1,3-3c2.074-.823,7-.633,9.288-.633s7.221-.183,9.288.633a5.317,5.317,0,0,1,3,3c.823,2.074.633,7,.633,9.288S220.6,1031.915,219.779,1033.982Z" transform="translate(-191.737 -1008.945)" fill="#333"/>
</svg>
