<svg xmlns="http://www.w3.org/2000/svg" width="34.876" height="34.662" viewBox="0 0 34.876 34.662">
  <path id="Icon_awesome-facebook" data-name="Icon awesome-facebook" d="M88.862,1024.8A17.438,17.438,0,1,0,68.7,1042.029v-12.186h-4.43V1024.8H68.7v-3.842c0-4.37,2.6-6.784,6.586-6.784a26.671,26.671,0,0,1,3.9.34v4.286h-2.2a2.52,2.52,0,0,0-2.829,2.167,2.583,2.583,0,0,0-.012.556v3.277H78.98l-.773,5.041H74.149v12.186A17.443,17.443,0,0,0,88.862,1024.8Z" transform="translate(-53.986 -1007.367)" fill="#333"/>
</svg>
